# This file uses centimeters as units for non-parametric coordinates.

mtllib 4.mtl
g default
v 13.633979 0.162078 -12.508203
v 13.800882 0.162078 -12.323488
v 11.985252 0.162078 -9.361008
v 11.812786 0.162078 -9.523585
v 11.515982 0.162078 -8.884756
v 11.717799 0.162078 -8.787443
v 13.633979 3.162078 -12.508203
v 13.800882 3.162078 -12.323488
v 11.812786 3.162078 -9.523585
v 11.985252 3.162078 -9.361008
v 11.515982 2.849007 -8.884756
v 11.717799 2.849007 -8.787443
v 10.917450 0.162078 -7.037869
v 10.199107 0.162078 -5.004241
v 9.990673 0.162078 -5.073896
v 10.720570 0.162078 -7.132801
v 10.917450 2.849007 -7.037869
v 10.720570 2.849007 -7.132801
v 10.095141 0.162078 -4.138363
v 9.878640 0.162078 -4.142264
v 10.780332 3.162078 -7.301378
v 10.965798 3.162078 -7.174745
v 10.053541 0.162078 -3.593204
v 9.835088 0.162078 -3.579872
v 9.878640 3.162078 -4.142264
v 9.990673 3.162078 -5.073896
v 10.199107 3.162078 -5.004241
v 10.095141 3.162078 -4.138363
v 9.835088 3.162078 -3.579872
v 10.053541 3.162078 -3.593204
v 9.637046 0.162078 -0.000001
v 9.413571 0.162078 -0.000001
v 9.832045 0.162078 3.541144
v 9.878640 0.162076 4.142264
v 9.832046 3.162078 3.541154
v 9.990673 0.162074 5.073894
v 9.878644 3.162076 4.142272
v 10.199106 0.162074 5.004237
v 10.095141 0.162076 4.138365
v 10.199110 3.162074 5.004245
v 10.095142 3.162076 4.138375
v 9.990677 3.162074 5.073893
v 9.413571 3.162078 -0.000001
v 10.780330 0.162074 7.301376
v 9.637046 3.162078 -0.000001
v 10.965796 0.162073 7.174744
v 10.965800 3.162073 7.174743
v 10.780335 3.162074 7.301375
v 10.780332 2.849007 -7.301378
v 10.965798 2.849007 -7.174745
v 10.050202 0.162078 3.552211
v 10.050202 3.162078 3.552211
v 11.985249 0.162072 9.361005
v 11.812782 0.162073 9.523581
v 11.812786 3.162073 9.523578
v 11.985253 3.162072 9.361004
v 13.800884 0.162071 12.323492
v 13.633898 0.162072 12.508206
v 13.800888 3.162071 12.323490
v 13.633903 3.162072 12.508204
vt 0.298163 0.234764
vt 0.335255 0.234764
vt 0.335255 0.354208
vt 0.298163 0.354208
vt 0.357647 0.234764
vt 0.357647 0.354208
vt 0.216188 0.234764
vt 0.209477 0.354208
vt 0.209477 0.341743
vt 0.216188 0.341743
vt 0.500177 0.234764
vt 0.500177 0.354208
vt 0.121000 0.234764
vt 0.146435 0.234764
vt 0.146435 0.341743
vt 0.121000 0.354208
vt 0.641166 0.234764
vt 0.641167 0.354208
vt 0.002169 0.234764
vt 0.002169 0.354208
vt 0.665100 0.234764
vt 0.665100 0.354208
vt 0.702192 0.234764
vt 0.702192 0.354208
vt 0.790878 0.234764
vt 0.790878 0.354208
vt 0.879354 0.234764
vt 0.879354 0.354208
vt 0.998185 0.234764
vt 0.998185 0.354208
vt 0.664945 0.109118
vt 0.699419 0.109118
vt 0.699419 0.228561
vt 0.664945 0.228561
vt 0.780387 0.109118
vt 0.780387 0.216096
vt 0.785837 0.216096
vt 0.785837 0.228561
vt 0.643239 0.109118
vt 0.643239 0.228561
vt 0.850045 0.109118
vt 0.872881 0.109118
vt 0.872881 0.228561
vt 0.850045 0.216096
vt 0.500178 0.109118
vt 0.500178 0.228561
vt 0.990831 0.109118
vt 0.990831 0.228561
vt 0.358748 0.109118
vt 0.358748 0.228561
vt 0.998185 0.109118
vt 0.998185 0.228561
vt 0.335411 0.109118
vt 0.335410 0.228561
vt 0.300936 0.228561
vt 0.300936 0.109117
vt 0.214519 0.228561
vt 0.214519 0.109117
vt 0.127474 0.109117
vt 0.127474 0.228561
vt 0.009524 0.109117
vt 0.009524 0.228561
vt 0.002170 0.109117
vt 0.002170 0.228561
vt 0.998185 0.808222
vt 0.990831 0.814867
vt 0.872881 0.742579
vt 0.879354 0.735712
vt 0.853920 0.723895
vt 0.850045 0.731930
vt 0.994406 0.601938
vt 0.913438 0.573338
vt 0.916211 0.565039
vt 0.998185 0.594100
vt 0.878963 0.569198
vt 0.879119 0.560579
vt 0.857258 0.567542
vt 0.856727 0.558845
vt 0.714196 0.550960
vt 0.714196 0.542062
vt 0.572767 0.567409
vt 0.573207 0.558723
vt 0.549430 0.569198
vt 0.549274 0.560579
vt 0.514955 0.573338
vt 0.512182 0.565039
vt 0.428538 0.603863
vt 0.423496 0.596479
vt 0.341493 0.644452
vt 0.335020 0.637585
vt 0.223543 0.716741
vt 0.216188 0.710092
vt 0.002170 0.528262
vt 0.121001 0.455752
vt 0.127474 0.462619
vt 0.009524 0.534908
vt 0.209477 0.414646
vt 0.214518 0.422030
vt 0.298163 0.383206
vt 0.300936 0.391505
vt 0.335255 0.378745
vt 0.335410 0.387365
vt 0.357647 0.377011
vt 0.357116 0.385709
vt 0.500177 0.360229
vt 0.500177 0.369126
vt 0.641167 0.376890
vt 0.641607 0.385576
vt 0.665100 0.378746
vt 0.664945 0.387365
vt 0.702192 0.383206
vt 0.699419 0.391505
vt 0.790878 0.414646
vt 0.785836 0.422030
vt 0.879354 0.455752
vt 0.872881 0.462619
vt 0.998185 0.528259
vt 0.990831 0.534908
vt 0.928432 0.851179
vt 0.935144 0.853558
vt 0.998185 0.882847
vt 0.994311 0.890883
vt 0.930102 0.860942
vt 0.924652 0.859017
vt 0.891207 0.822085
vt 0.998185 0.822085
vt 0.998185 0.830120
vt 0.891207 0.830120
vt 0.998185 0.844471
vt 0.891207 0.844471
vt 0.891207 0.836632
vt 0.998185 0.836632
vn 0.000000 -1.000000 0.000000
vn 0.000000 -1.000000 0.000000
vn 0.000000 -1.000000 0.000000
vn 0.000000 -1.000000 0.000000
vn 0.000000 -1.000000 0.000000
vn 0.000000 -1.000000 0.000000
vn 0.741973 0.000000 -0.670430
vn 0.741973 0.000000 -0.670430
vn 0.741973 0.000000 -0.670430
vn 0.741973 0.000000 -0.670430
vn -0.853630 0.000000 -0.520879
vn -0.865296 -0.000000 -0.501262
vn -0.865296 -0.000000 -0.501262
vn -0.853630 0.000000 -0.520879
vn 0.863709 0.000000 0.503992
vn 0.852612 0.000000 0.522544
vn 0.852612 0.000000 0.522544
vn 0.863709 0.000000 0.503992
vn -0.434328 0.000000 0.900755
vn -0.434328 0.000000 0.900755
vn -0.434328 0.000000 0.900755
vn -0.434328 0.000000 0.900755
vn 0.000000 -1.000000 -0.000000
vn 0.000000 -1.000000 -0.000000
vn 0.000000 -1.000000 -0.000000
vn 0.000000 -1.000000 -0.000000
vn 0.000000 1.000000 -0.000000
vn 0.000000 1.000000 0.000000
vn 0.000000 1.000000 0.000000
vn 0.000000 1.000000 -0.000000
vn 0.434325 0.000000 -0.900757
vn 0.434325 0.000000 -0.900757
vn 0.434325 0.000000 -0.900757
vn 0.434325 0.000000 -0.900757
vn 0.000000 -1.000000 0.000000
vn 0.000000 -1.000000 0.000000
vn 0.000000 1.000000 0.000000
vn 0.000000 1.000000 0.000000
vn 0.000000 -1.000000 0.000000
vn 0.000000 -1.000000 0.000000
vn -0.962473 -0.000000 -0.271377
vn -0.994621 0.000000 -0.103578
vn -0.994621 0.000000 -0.103578
vn -0.962473 -0.000000 -0.271377
vn 0.994721 0.000000 0.102618
vn 0.961972 0.000000 0.273147
vn 0.961972 0.000000 0.273147
vn 0.994721 0.000000 0.102618
vn 0.000000 1.000000 -0.000000
vn 0.000000 1.000000 -0.000000
vn -0.993756 0.000000 -0.111573
vn -0.993756 0.000000 -0.111573
vn 0.993929 -0.000000 0.110023
vn 0.993929 -0.000000 0.110023
vn 0.000000 -1.000000 0.000000
vn 0.000000 -1.000000 0.000000
vn -0.993756 0.000000 0.111573
vn -0.993756 0.000000 0.111573
vn -0.994687 0.000001 0.102944
vn -0.994687 0.000001 0.102944
vn 0.000000 1.000000 0.000000
vn 0.000000 1.000000 0.000000
vn -0.961597 0.000001 0.274465
vn -0.961597 0.000001 0.274465
vn 0.961263 -0.000001 -0.275635
vn 0.961263 -0.000001 -0.275634
vn 0.994783 -0.000000 -0.102015
vn 0.994783 -0.000000 -0.102015
vn 0.000000 1.000000 0.000000
vn 0.000000 1.000000 0.000000
vn -1.000000 -0.000000 -0.000427
vn -1.000000 -0.000000 -0.000427
vn -0.925417 0.000001 0.378951
vn -0.925417 0.000001 0.378951
vn 1.000000 -0.000000 0.000467
vn 1.000000 -0.000000 0.000467
vn 0.925262 -0.000001 -0.379330
vn 0.925262 -0.000001 -0.379330
vn -0.906898 -0.000001 -0.421351
vn -0.906898 -0.000001 -0.421351
vn -0.933150 -0.000000 -0.359487
vn -0.933150 -0.000000 -0.359487
vn 0.000000 1.000000 0.000000
vn 0.000000 1.000000 0.000000
vn 0.906310 0.000001 0.422612
vn 0.933757 0.000001 0.357908
vn 0.933757 0.000001 0.357908
vn 0.906310 0.000001 0.422612
vn -0.000000 -1.000000 -0.000001
vn -0.000000 -1.000000 -0.000000
vn 0.993929 0.000000 -0.110023
vn 0.993929 0.000000 -0.110023
vn -0.942526 -0.000000 -0.334132
vn -0.942526 -0.000000 -0.334132
vn -0.000001 -1.000000 -0.000003
vn -0.000001 -1.000000 -0.000003
vn 0.000000 -1.000000 0.000000
vn 0.000000 -1.000000 0.000000
vn 0.000000 -1.000000 0.000000
vn 0.000000 -1.000000 0.000000
vn 0.000000 -1.000000 0.000000
vn 0.000000 -1.000000 0.000000
vn 0.942904 0.000001 0.333064
vn 0.942904 0.000001 0.333064
vn 0.000000 1.000000 0.000000
vn 0.000000 1.000000 0.000001
vn -0.000001 -1.000000 -0.000001
vn -0.000001 -1.000000 -0.000000
vn -0.000001 -1.000000 0.000000
vn -0.000001 -1.000000 0.000000
vn 0.000001 1.000000 0.000003
vn 0.000001 1.000000 0.000003
vn 0.000001 1.000000 0.000000
vn 0.000001 1.000000 0.000000
vn 0.000001 1.000000 -0.000000
vn 0.000001 1.000000 -0.000000
vn -0.000002 -1.000000 0.000000
vn -0.000002 -1.000000 0.000000
vn -0.876939 0.000002 0.480601
vn -0.876940 0.000002 0.480601
vn 0.875980 -0.000001 -0.482347
vn 0.875980 -0.000001 -0.482347
vn 0.000002 1.000000 -0.000001
vn 0.000002 1.000000 -0.000001
vn -0.000002 -1.000000 0.000001
vn -0.000002 -1.000000 0.000001
vn 0.852612 -0.000001 -0.522545
vn 0.852612 -0.000001 -0.522545
vn -0.853641 0.000002 0.520862
vn -0.853641 0.000002 0.520862
vn 0.000002 1.000000 -0.000001
vn 0.000002 1.000000 -0.000001
vn 0.741805 -0.000001 0.670615
vn 0.741806 -0.000001 0.670615
vn 0.741805 -0.000001 0.670615
vn 0.741805 -0.000001 0.670615
g polySurface7
usemtl initialShadingGroup
f 1/65/1 2/66/2 3/67/3 4/68/4
f 5/69/5 4/68/4 3/67/3 6/70/6
f 2/47/7 1/51/8 7/52/9 8/48/10
f 1/19/11 4/13/12 9/16/13 7/20/14
f 3/42/15 2/47/16 8/48/17 10/43/18
f 11/125/19 5/126/20 6/127/21 12/128/22
f 13/71/23 14/72/24 15/73/25 16/74/26
f 7/93/27 9/94/28 10/95/29 8/96/30
f 17/129/31 13/130/32 16/131/33 18/132/34
f 15/73/25 14/72/24 19/75/35 20/76/36
f 9/94/28 21/97/37 22/98/38 10/95/29
f 20/76/36 19/75/35 23/77/39 24/78/40
f 15/1/41 20/2/42 25/3/43 26/4/44
f 19/31/45 14/32/46 27/33/47 28/34/48
f 21/97/37 26/99/49 27/100/50 22/98/38
f 20/2/42 24/5/51 29/6/52 25/3/43
f 23/39/53 19/31/45 28/34/48 30/40/54
f 24/78/40 23/77/39 31/79/55 32/80/56
f 35/18/57 33/17/58 34/21/59 37/22/60
f 26/99/49 25/101/61 28/102/62 27/100/50
f 37/22/60 34/21/59 36/23/63 42/24/64
f 40/55/65 38/56/66 39/53/67 41/54/68
f 25/101/61 29/103/69 30/104/70 28/102/62
f 24/5/51 32/11/71 43/12/72 29/6/52
f 42/24/64 36/23/63 44/25/73 48/26/74
f 31/45/75 23/39/53 30/40/54 45/46/76
f 47/57/77 46/58/78 38/56/66 40/55/65
f 4/13/12 5/14/79 11/15/80 49/9/81 21/8/82 9/16/13
f 29/103/69 43/105/83 45/106/84 30/104/70
f 6/41/85 3/42/15 10/43/18 22/38/86 50/37/87 12/44/88
f 32/80/56 31/79/55 51/81/89 33/82/90
f 32/11/71 33/17/58 35/18/57 43/12/72
f 51/49/91 31/45/75 45/46/76 52/50/92
f 16/7/93 15/1/41 26/4/44 21/8/82 49/9/81 18/10/94
f 33/82/90 51/81/89 39/83/95 34/84/96
f 18/119/97 49/120/98 11/121/99 12/122/100 50/123/101 17/124/102
f 14/32/46 13/35/103 17/36/104 50/37/87 22/38/86 27/33/47
f 43/105/83 35/107/105 52/108/106 45/106/84
f 34/84/96 39/83/95 38/85/107 36/86/108
f 39/53/67 51/49/91 52/50/92 41/54/68
f 36/86/108 38/85/107 46/87/109 44/88/110
f 35/107/105 37/109/111 41/110/112 52/108/106
f 37/109/111 42/111/113 40/112/114 41/110/112
f 42/111/113 48/113/115 47/114/116 40/112/114
f 44/88/110 46/87/109 53/89/117 54/90/118
f 44/25/73 54/27/119 55/28/120 48/26/74
f 53/59/121 46/58/78 47/57/77 56/60/122
f 48/113/115 55/115/123 56/116/124 47/114/116
f 54/90/118 53/89/117 57/91/125 58/92/126
f 57/61/127 53/59/121 56/60/122 59/62/128
f 54/27/119 58/29/129 60/30/130 55/28/120
f 55/115/123 60/117/131 59/118/132 56/116/124
f 58/63/133 57/61/134 59/62/135 60/64/136
